# xmcd
#
# Track frame offsets: 
#        150
#        19773
#        32502
#        46785
#        63633
#        82185
#        97888
#        131023
#        147193
#        164542
#        179758
#        193536
#        216882
#        233492
#        249733
#
# Disc length: 3583 seconds
#
# Revision: 0
# Processed by: cddbd v1.5.2PL0 Copyright (c) Steve Scherf et al.
# Submitted via: ExactAudioCopy v1.0b4
#
DISCID=d10dfd0f
DTITLE=Roosevelt Dean - Touch Somebody's Hand
DYEAR=2005
DGENRE=Blues
TTITLE0=Whiskey and Gin
TTITLE1=I Been Watching You
TTITLE2=Fire and Ice
TTITLE3=Step into My Heart
TTITLE4=Honey Bee
TTITLE5=It Hurts Me To
TTITLE6=God
TTITLE7=Blues Man
TTITLE8=Stay Away
TTITLE9=Willie Mae
TTITLE10=If You Want to Love Me
TTITLE11=I've Got a Woman
TTITLE12=Big Fat Woman
TTITLE13=Where Am I Gonna Go
TTITLE14=Touch Somebody's Hand
EXTD=
EXTT0=
EXTT1=
EXTT2=
EXTT3=
EXTT4=
EXTT5=
EXTT6=
EXTT7=
EXTT8=
EXTT9=
EXTT10=
EXTT11=
EXTT12=
EXTT13=
EXTT14=
PLAYORDER=
